<svg xmlns="http://www.w3.org/2000/svg" xmlns:xlink="http://www.w3.org/1999/xlink" width="200" zoomAndPan="magnify" viewBox="0 0 150 30.000001" height="40" preserveAspectRatio="xMidYMid meet" version="1.2"><defs/><g id="9857bb53c9"><g style="fill:#ffffff;fill-opacity:0.4;"><g transform="translate(3.79083, 15.009709)"><path style="stroke:none" d="M 10.234375 -0.75 C 9.765625 -0.488281 9.265625 -0.285156 8.734375 -0.140625 C 8.203125 -0.00390625 7.644531 0.0625 7.0625 0.0625 C 6.050781 0.0625 5.160156 -0.109375 4.390625 -0.453125 C 3.617188 -0.796875 2.96875 -1.253906 2.4375 -1.828125 C 1.914062 -2.410156 1.519531 -3.0625 1.25 -3.78125 C 0.976562 -4.507812 0.835938 -5.265625 0.828125 -6.046875 C 0.816406 -6.828125 0.929688 -7.582031 1.171875 -8.3125 C 1.421875 -9.039062 1.800781 -9.707031 2.3125 -10.3125 C 2.832031 -10.914062 3.484375 -11.398438 4.265625 -11.765625 C 5.054688 -12.140625 5.988281 -12.34375 7.0625 -12.375 C 7.550781 -12.40625 8 -12.382812 8.40625 -12.3125 C 8.8125 -12.238281 9.148438 -12.160156 9.421875 -12.078125 C 9.691406 -12.003906 9.859375 -11.957031 9.921875 -11.9375 L 9.640625 -9.4375 C 9.390625 -9.539062 9.054688 -9.644531 8.640625 -9.75 C 8.234375 -9.863281 7.707031 -9.910156 7.0625 -9.890625 C 6.351562 -9.867188 5.75 -9.710938 5.25 -9.421875 C 4.75 -9.140625 4.351562 -8.773438 4.0625 -8.328125 C 3.769531 -7.878906 3.578125 -7.390625 3.484375 -6.859375 C 3.390625 -6.335938 3.394531 -5.8125 3.5 -5.28125 C 3.601562 -4.757812 3.804688 -4.273438 4.109375 -3.828125 C 4.410156 -3.390625 4.804688 -3.039062 5.296875 -2.78125 C 5.796875 -2.519531 6.382812 -2.390625 7.0625 -2.390625 C 7.175781 -2.390625 7.289062 -2.394531 7.40625 -2.40625 C 7.519531 -2.425781 7.632812 -2.441406 7.75 -2.453125 L 7.75 -6.140625 L 10.234375 -6.140625 Z M 10.234375 -0.75 "/></g></g><g style="fill:#ffffff;fill-opacity:0.4;"><g transform="translate(18.27411, 15.009709)"><path style="stroke:none" d="M 7.28125 0.171875 C 6.226562 0.171875 5.300781 -0.00390625 4.5 -0.359375 C 3.707031 -0.710938 3.046875 -1.191406 2.515625 -1.796875 C 1.992188 -2.398438 1.597656 -3.078125 1.328125 -3.828125 C 1.066406 -4.585938 0.9375 -5.363281 0.9375 -6.15625 C 0.9375 -6.945312 1.066406 -7.71875 1.328125 -8.46875 C 1.597656 -9.226562 1.992188 -9.910156 2.515625 -10.515625 C 3.046875 -11.117188 3.707031 -11.597656 4.5 -11.953125 C 5.300781 -12.304688 6.226562 -12.484375 7.28125 -12.484375 C 8.332031 -12.484375 9.253906 -12.304688 10.046875 -11.953125 C 10.847656 -11.597656 11.507812 -11.117188 12.03125 -10.515625 C 12.5625 -9.910156 12.957031 -9.226562 13.21875 -8.46875 C 13.488281 -7.71875 13.625 -6.945312 13.625 -6.15625 C 13.625 -5.363281 13.488281 -4.585938 13.21875 -3.828125 C 12.957031 -3.078125 12.5625 -2.398438 12.03125 -1.796875 C 11.507812 -1.191406 10.847656 -0.710938 10.046875 -0.359375 C 9.253906 -0.00390625 8.332031 0.171875 7.28125 0.171875 Z M 7.28125 -2.375 C 7.976562 -2.375 8.578125 -2.507812 9.078125 -2.78125 C 9.585938 -3.050781 9.988281 -3.410156 10.28125 -3.859375 C 10.582031 -4.316406 10.785156 -4.816406 10.890625 -5.359375 C 10.992188 -5.898438 10.992188 -6.4375 10.890625 -6.96875 C 10.785156 -7.507812 10.582031 -8.003906 10.28125 -8.453125 C 9.988281 -8.910156 9.585938 -9.273438 9.078125 -9.546875 C 8.578125 -9.816406 7.976562 -9.953125 7.28125 -9.953125 C 6.582031 -9.953125 5.976562 -9.816406 5.46875 -9.546875 C 4.96875 -9.273438 4.566406 -8.910156 4.265625 -8.453125 C 3.972656 -8.003906 3.773438 -7.507812 3.671875 -6.96875 C 3.566406 -6.4375 3.566406 -5.898438 3.671875 -5.359375 C 3.773438 -4.816406 3.972656 -4.316406 4.265625 -3.859375 C 4.566406 -3.410156 4.96875 -3.050781 5.46875 -2.78125 C 5.976562 -2.507812 6.582031 -2.375 7.28125 -2.375 Z M 7.28125 -2.375 "/></g></g><g style="fill:#ffffff;fill-opacity:0.4;"><g transform="translate(35.742981, 15.009709)"><path style="stroke:none" d="M 3.828125 0 L 1.375 0 L 1.375 -12.28125 L 3.828125 -12.28125 Z M 3.828125 0 "/></g></g><g style="fill:#ffffff;fill-opacity:0.4;"><g transform="translate(43.89477, 15.009709)"><path style="stroke:none" d="M 3.828125 -6.6875 L 3.828125 0 L 1.375 0 L 1.375 -12.53125 L 2.03125 -12.53125 L 8.21875 -5.328125 L 8.21875 -12.265625 L 10.703125 -12.265625 L 10.703125 0.25 L 10.046875 0.25 Z M 3.828125 -6.6875 "/></g></g><g style="fill:#ffffff;fill-opacity:0.4;"><g transform="translate(58.909968, 15.009709)"><path style="stroke:none" d="M 10.234375 -0.75 C 9.765625 -0.488281 9.265625 -0.285156 8.734375 -0.140625 C 8.203125 -0.00390625 7.644531 0.0625 7.0625 0.0625 C 6.050781 0.0625 5.160156 -0.109375 4.390625 -0.453125 C 3.617188 -0.796875 2.96875 -1.253906 2.4375 -1.828125 C 1.914062 -2.410156 1.519531 -3.0625 1.25 -3.78125 C 0.976562 -4.507812 0.835938 -5.265625 0.828125 -6.046875 C 0.816406 -6.828125 0.929688 -7.582031 1.171875 -8.3125 C 1.421875 -9.039062 1.800781 -9.707031 2.3125 -10.3125 C 2.832031 -10.914062 3.484375 -11.398438 4.265625 -11.765625 C 5.054688 -12.140625 5.988281 -12.34375 7.0625 -12.375 C 7.550781 -12.40625 8 -12.382812 8.40625 -12.3125 C 8.8125 -12.238281 9.148438 -12.160156 9.421875 -12.078125 C 9.691406 -12.003906 9.859375 -11.957031 9.921875 -11.9375 L 9.640625 -9.4375 C 9.390625 -9.539062 9.054688 -9.644531 8.640625 -9.75 C 8.234375 -9.863281 7.707031 -9.910156 7.0625 -9.890625 C 6.351562 -9.867188 5.75 -9.710938 5.25 -9.421875 C 4.75 -9.140625 4.351562 -8.773438 4.0625 -8.328125 C 3.769531 -7.878906 3.578125 -7.390625 3.484375 -6.859375 C 3.390625 -6.335938 3.394531 -5.8125 3.5 -5.28125 C 3.601562 -4.757812 3.804688 -4.273438 4.109375 -3.828125 C 4.410156 -3.390625 4.804688 -3.039062 5.296875 -2.78125 C 5.796875 -2.519531 6.382812 -2.390625 7.0625 -2.390625 C 7.175781 -2.390625 7.289062 -2.394531 7.40625 -2.40625 C 7.519531 -2.425781 7.632812 -2.441406 7.75 -2.453125 L 7.75 -6.140625 L 10.234375 -6.140625 Z M 10.234375 -0.75 "/></g></g><g style="fill:#000000;fill-opacity:1;"><g transform="translate(3.032136, 14.251016)"><path style="stroke:none" d="M 10.234375 -0.75 C 9.765625 -0.488281 9.265625 -0.285156 8.734375 -0.140625 C 8.203125 -0.00390625 7.644531 0.0625 7.0625 0.0625 C 6.050781 0.0625 5.160156 -0.109375 4.390625 -0.453125 C 3.617188 -0.796875 2.96875 -1.253906 2.4375 -1.828125 C 1.914062 -2.410156 1.519531 -3.0625 1.25 -3.78125 C 0.976562 -4.507812 0.835938 -5.265625 0.828125 -6.046875 C 0.816406 -6.828125 0.929688 -7.582031 1.171875 -8.3125 C 1.421875 -9.039062 1.800781 -9.707031 2.3125 -10.3125 C 2.832031 -10.914062 3.484375 -11.398438 4.265625 -11.765625 C 5.054688 -12.140625 5.988281 -12.34375 7.0625 -12.375 C 7.550781 -12.40625 8 -12.382812 8.40625 -12.3125 C 8.8125 -12.238281 9.148438 -12.160156 9.421875 -12.078125 C 9.691406 -12.003906 9.859375 -11.957031 9.921875 -11.9375 L 9.640625 -9.4375 C 9.390625 -9.539062 9.054688 -9.644531 8.640625 -9.75 C 8.234375 -9.863281 7.707031 -9.910156 7.0625 -9.890625 C 6.351562 -9.867188 5.75 -9.710938 5.25 -9.421875 C 4.75 -9.140625 4.351562 -8.773438 4.0625 -8.328125 C 3.769531 -7.878906 3.578125 -7.390625 3.484375 -6.859375 C 3.390625 -6.335938 3.394531 -5.8125 3.5 -5.28125 C 3.601562 -4.757812 3.804688 -4.273438 4.109375 -3.828125 C 4.410156 -3.390625 4.804688 -3.039062 5.296875 -2.78125 C 5.796875 -2.519531 6.382812 -2.390625 7.0625 -2.390625 C 7.175781 -2.390625 7.289062 -2.394531 7.40625 -2.40625 C 7.519531 -2.425781 7.632812 -2.441406 7.75 -2.453125 L 7.75 -6.140625 L 10.234375 -6.140625 Z M 10.234375 -0.75 "/></g></g><g style="fill:#000000;fill-opacity:1;"><g transform="translate(17.515416, 14.251016)"><path style="stroke:none" d="M 7.28125 0.171875 C 6.226562 0.171875 5.300781 -0.00390625 4.5 -0.359375 C 3.707031 -0.710938 3.046875 -1.191406 2.515625 -1.796875 C 1.992188 -2.398438 1.597656 -3.078125 1.328125 -3.828125 C 1.066406 -4.585938 0.9375 -5.363281 0.9375 -6.15625 C 0.9375 -6.945312 1.066406 -7.71875 1.328125 -8.46875 C 1.597656 -9.226562 1.992188 -9.910156 2.515625 -10.515625 C 3.046875 -11.117188 3.707031 -11.597656 4.5 -11.953125 C 5.300781 -12.304688 6.226562 -12.484375 7.28125 -12.484375 C 8.332031 -12.484375 9.253906 -12.304688 10.046875 -11.953125 C 10.847656 -11.597656 11.507812 -11.117188 12.03125 -10.515625 C 12.5625 -9.910156 12.957031 -9.226562 13.21875 -8.46875 C 13.488281 -7.71875 13.625 -6.945312 13.625 -6.15625 C 13.625 -5.363281 13.488281 -4.585938 13.21875 -3.828125 C 12.957031 -3.078125 12.5625 -2.398438 12.03125 -1.796875 C 11.507812 -1.191406 10.847656 -0.710938 10.046875 -0.359375 C 9.253906 -0.00390625 8.332031 0.171875 7.28125 0.171875 Z M 7.28125 -2.375 C 7.976562 -2.375 8.578125 -2.507812 9.078125 -2.78125 C 9.585938 -3.050781 9.988281 -3.410156 10.28125 -3.859375 C 10.582031 -4.316406 10.785156 -4.816406 10.890625 -5.359375 C 10.992188 -5.898438 10.992188 -6.4375 10.890625 -6.96875 C 10.785156 -7.507812 10.582031 -8.003906 10.28125 -8.453125 C 9.988281 -8.910156 9.585938 -9.273438 9.078125 -9.546875 C 8.578125 -9.816406 7.976562 -9.953125 7.28125 -9.953125 C 6.582031 -9.953125 5.976562 -9.816406 5.46875 -9.546875 C 4.96875 -9.273438 4.566406 -8.910156 4.265625 -8.453125 C 3.972656 -8.003906 3.773438 -7.507812 3.671875 -6.96875 C 3.566406 -6.4375 3.566406 -5.898438 3.671875 -5.359375 C 3.773438 -4.816406 3.972656 -4.316406 4.265625 -3.859375 C 4.566406 -3.410156 4.96875 -3.050781 5.46875 -2.78125 C 5.976562 -2.507812 6.582031 -2.375 7.28125 -2.375 Z M 7.28125 -2.375 "/></g></g><g style="fill:#000000;fill-opacity:1;"><g transform="translate(34.984287, 14.251016)"><path style="stroke:none" d="M 3.828125 0 L 1.375 0 L 1.375 -12.28125 L 3.828125 -12.28125 Z M 3.828125 0 "/></g></g><g style="fill:#000000;fill-opacity:1;"><g transform="translate(43.136076, 14.251016)"><path style="stroke:none" d="M 3.828125 -6.6875 L 3.828125 0 L 1.375 0 L 1.375 -12.53125 L 2.03125 -12.53125 L 8.21875 -5.328125 L 8.21875 -12.265625 L 10.703125 -12.265625 L 10.703125 0.25 L 10.046875 0.25 Z M 3.828125 -6.6875 "/></g></g><g style="fill:#000000;fill-opacity:1;"><g transform="translate(58.151274, 14.251016)"><path style="stroke:none" d="M 10.234375 -0.75 C 9.765625 -0.488281 9.265625 -0.285156 8.734375 -0.140625 C 8.203125 -0.00390625 7.644531 0.0625 7.0625 0.0625 C 6.050781 0.0625 5.160156 -0.109375 4.390625 -0.453125 C 3.617188 -0.796875 2.96875 -1.253906 2.4375 -1.828125 C 1.914062 -2.410156 1.519531 -3.0625 1.25 -3.78125 C 0.976562 -4.507812 0.835938 -5.265625 0.828125 -6.046875 C 0.816406 -6.828125 0.929688 -7.582031 1.171875 -8.3125 C 1.421875 -9.039062 1.800781 -9.707031 2.3125 -10.3125 C 2.832031 -10.914062 3.484375 -11.398438 4.265625 -11.765625 C 5.054688 -12.140625 5.988281 -12.34375 7.0625 -12.375 C 7.550781 -12.40625 8 -12.382812 8.40625 -12.3125 C 8.8125 -12.238281 9.148438 -12.160156 9.421875 -12.078125 C 9.691406 -12.003906 9.859375 -11.957031 9.921875 -11.9375 L 9.640625 -9.4375 C 9.390625 -9.539062 9.054688 -9.644531 8.640625 -9.75 C 8.234375 -9.863281 7.707031 -9.910156 7.0625 -9.890625 C 6.351562 -9.867188 5.75 -9.710938 5.25 -9.421875 C 4.75 -9.140625 4.351562 -8.773438 4.0625 -8.328125 C 3.769531 -7.878906 3.578125 -7.390625 3.484375 -6.859375 C 3.390625 -6.335938 3.394531 -5.8125 3.5 -5.28125 C 3.601562 -4.757812 3.804688 -4.273438 4.109375 -3.828125 C 4.410156 -3.390625 4.804688 -3.039062 5.296875 -2.78125 C 5.796875 -2.519531 6.382812 -2.390625 7.0625 -2.390625 C 7.175781 -2.390625 7.289062 -2.394531 7.40625 -2.40625 C 7.519531 -2.425781 7.632812 -2.441406 7.75 -2.453125 L 7.75 -6.140625 L 10.234375 -6.140625 Z M 10.234375 -0.75 "/></g></g><g style="fill:#ffffff;fill-opacity:0.4;"><g transform="translate(73.400204, 15.009709)"><path style="stroke:none" d="M 4.6875 -7.28125 C 5.019531 -7.75 5.207031 -8.101562 5.25 -8.34375 C 5.289062 -8.582031 5.3125 -8.703125 5.3125 -8.703125 C 5.3125 -9.046875 5.1875 -9.332031 4.9375 -9.5625 C 4.695312 -9.800781 4.394531 -9.925781 4.03125 -9.9375 C 3.675781 -9.96875 3.300781 -9.925781 2.90625 -9.8125 C 2.519531 -9.695312 2.171875 -9.554688 1.859375 -9.390625 C 1.554688 -9.222656 1.335938 -9.082031 1.203125 -8.96875 L 0.59375 -11.328125 C 1.070312 -11.671875 1.648438 -11.945312 2.328125 -12.15625 C 3.003906 -12.375 3.640625 -12.472656 4.234375 -12.453125 C 5.140625 -12.398438 5.882812 -12.1875 6.46875 -11.8125 C 7.0625 -11.4375 7.484375 -10.945312 7.734375 -10.34375 C 7.992188 -9.738281 8.0625 -9.082031 7.9375 -8.375 C 7.820312 -7.664062 7.503906 -6.953125 6.984375 -6.234375 L 4.5625 -2.484375 L 8.203125 -2.484375 L 8.203125 0 L 0.109375 0 Z M 4.6875 -7.28125 "/></g></g><g style="fill:#ff1616;fill-opacity:1;"><g transform="translate(72.64151, 14.251016)"><path style="stroke:none" d="M 4.6875 -7.28125 C 5.019531 -7.75 5.207031 -8.101562 5.25 -8.34375 C 5.289062 -8.582031 5.3125 -8.703125 5.3125 -8.703125 C 5.3125 -9.046875 5.1875 -9.332031 4.9375 -9.5625 C 4.695312 -9.800781 4.394531 -9.925781 4.03125 -9.9375 C 3.675781 -9.96875 3.300781 -9.925781 2.90625 -9.8125 C 2.519531 -9.695312 2.171875 -9.554688 1.859375 -9.390625 C 1.554688 -9.222656 1.335938 -9.082031 1.203125 -8.96875 L 0.59375 -11.328125 C 1.070312 -11.671875 1.648438 -11.945312 2.328125 -12.15625 C 3.003906 -12.375 3.640625 -12.472656 4.234375 -12.453125 C 5.140625 -12.398438 5.882812 -12.1875 6.46875 -11.8125 C 7.0625 -11.4375 7.484375 -10.945312 7.734375 -10.34375 C 7.992188 -9.738281 8.0625 -9.082031 7.9375 -8.375 C 7.820312 -7.664062 7.503906 -6.953125 6.984375 -6.234375 L 4.5625 -2.484375 L 8.203125 -2.484375 L 8.203125 0 L 0.109375 0 Z M 4.6875 -7.28125 "/></g></g><g style="fill:#ffffff;fill-opacity:0.4;"><g transform="translate(85.285285, 15.009709)"><path style="stroke:none" d="M 5.03125 -12.28125 C 6.050781 -12.28125 6.941406 -12.109375 7.703125 -11.765625 C 8.472656 -11.421875 9.113281 -10.957031 9.625 -10.375 C 10.132812 -9.789062 10.515625 -9.128906 10.765625 -8.390625 C 11.023438 -7.660156 11.15625 -6.910156 11.15625 -6.140625 C 11.15625 -5.367188 11.023438 -4.613281 10.765625 -3.875 C 10.515625 -3.144531 10.132812 -2.488281 9.625 -1.90625 C 9.113281 -1.320312 8.472656 -0.859375 7.703125 -0.515625 C 6.941406 -0.171875 6.050781 0 5.03125 0 L 1.375 0 L 1.375 -12.28125 Z M 5.03125 -9.828125 L 3.828125 -9.828125 L 3.828125 -2.453125 L 5.03125 -2.453125 C 5.71875 -2.453125 6.300781 -2.582031 6.78125 -2.84375 C 7.269531 -3.113281 7.660156 -3.46875 7.953125 -3.90625 C 8.242188 -4.34375 8.4375 -4.820312 8.53125 -5.34375 C 8.632812 -5.875 8.632812 -6.398438 8.53125 -6.921875 C 8.4375 -7.441406 8.242188 -7.921875 7.953125 -8.359375 C 7.660156 -8.804688 7.269531 -9.160156 6.78125 -9.421875 C 6.300781 -9.691406 5.71875 -9.828125 5.03125 -9.828125 Z M 5.03125 -9.828125 "/></g></g><g style="fill:#ffffff;fill-opacity:0.4;"><g transform="translate(100.300483, 15.009709)"><path style="stroke:none" d="M 10.1875 -4.28125 C 10.1875 -3.4375 10.023438 -2.71875 9.703125 -2.125 C 9.378906 -1.53125 8.953125 -1.054688 8.421875 -0.703125 C 7.898438 -0.347656 7.320312 -0.113281 6.6875 0 C 6.0625 0.125 5.429688 0.125 4.796875 0 C 4.160156 -0.113281 3.578125 -0.347656 3.046875 -0.703125 C 2.523438 -1.054688 2.101562 -1.53125 1.78125 -2.125 C 1.46875 -2.71875 1.3125 -3.4375 1.3125 -4.28125 L 1.3125 -12.28125 L 3.765625 -12.28125 L 3.765625 -4.296875 C 3.765625 -3.773438 3.894531 -3.359375 4.15625 -3.046875 C 4.425781 -2.742188 4.757812 -2.539062 5.15625 -2.4375 C 5.550781 -2.332031 5.945312 -2.332031 6.34375 -2.4375 C 6.738281 -2.539062 7.070312 -2.742188 7.34375 -3.046875 C 7.613281 -3.359375 7.75 -3.773438 7.75 -4.296875 L 7.75 -12.28125 L 10.1875 -12.28125 Z M 10.1875 -4.28125 "/></g></g><g style="fill:#ffffff;fill-opacity:0.4;"><g transform="translate(114.749454, 15.009709)"><path style="stroke:none" d="M 1.375 0 L 1.375 -12.296875 L 6.234375 -12.296875 C 6.960938 -12.296875 7.585938 -12.132812 8.109375 -11.8125 C 8.640625 -11.488281 9.046875 -11.046875 9.328125 -10.484375 C 9.609375 -9.929688 9.738281 -9.289062 9.71875 -8.5625 C 9.707031 -8.101562 9.613281 -7.648438 9.4375 -7.203125 C 9.257812 -6.765625 8.972656 -6.410156 8.578125 -6.140625 C 8.984375 -5.867188 9.296875 -5.507812 9.515625 -5.0625 C 9.742188 -4.625 9.859375 -4.164062 9.859375 -3.6875 C 9.859375 -3 9.691406 -2.378906 9.359375 -1.828125 C 9.035156 -1.273438 8.597656 -0.832031 8.046875 -0.5 C 7.503906 -0.164062 6.898438 0 6.234375 0 Z M 3.84375 -9.84375 L 3.84375 -7.359375 L 6.03125 -7.359375 C 6.382812 -7.359375 6.660156 -7.484375 6.859375 -7.734375 C 7.054688 -7.984375 7.15625 -8.273438 7.15625 -8.609375 C 7.15625 -8.953125 7.054688 -9.242188 6.859375 -9.484375 C 6.660156 -9.722656 6.382812 -9.84375 6.03125 -9.84375 Z M 3.84375 -4.90625 L 3.84375 -2.453125 L 6.03125 -2.453125 C 6.382812 -2.453125 6.675781 -2.570312 6.90625 -2.8125 C 7.144531 -3.050781 7.265625 -3.34375 7.265625 -3.6875 C 7.265625 -4.03125 7.144531 -4.316406 6.90625 -4.546875 C 6.675781 -4.785156 6.382812 -4.90625 6.03125 -4.90625 Z M 3.84375 -4.90625 "/></g></g><g style="fill:#ffffff;fill-opacity:0.4;"><g transform="translate(128.340494, 15.009709)"><path style="stroke:none" d="M 0.28125 0 L 5.4375 -12.71875 L 5.703125 -12.71875 L 10.875 0 L 8.109375 0 L 7.609375 -1.328125 L 3.53125 -1.328125 L 3.0625 0 Z M 4.4375 -3.625 L 6.703125 -3.625 L 5.578125 -6.8125 Z M 4.4375 -3.625 "/></g></g><g style="fill:#ffffff;fill-opacity:0.4;"><g transform="translate(142.480607, 15.009709)"><path style="stroke:none" d="M 3.828125 0 L 1.375 0 L 1.375 -12.28125 L 3.828125 -12.28125 Z M 3.828125 0 "/></g></g><g style="fill:#000000;fill-opacity:1;"><g transform="translate(84.526591, 14.251016)"><path style="stroke:none" d="M 5.03125 -12.28125 C 6.050781 -12.28125 6.941406 -12.109375 7.703125 -11.765625 C 8.472656 -11.421875 9.113281 -10.957031 9.625 -10.375 C 10.132812 -9.789062 10.515625 -9.128906 10.765625 -8.390625 C 11.023438 -7.660156 11.15625 -6.910156 11.15625 -6.140625 C 11.15625 -5.367188 11.023438 -4.613281 10.765625 -3.875 C 10.515625 -3.144531 10.132812 -2.488281 9.625 -1.90625 C 9.113281 -1.320312 8.472656 -0.859375 7.703125 -0.515625 C 6.941406 -0.171875 6.050781 0 5.03125 0 L 1.375 0 L 1.375 -12.28125 Z M 5.03125 -9.828125 L 3.828125 -9.828125 L 3.828125 -2.453125 L 5.03125 -2.453125 C 5.71875 -2.453125 6.300781 -2.582031 6.78125 -2.84375 C 7.269531 -3.113281 7.660156 -3.46875 7.953125 -3.90625 C 8.242188 -4.34375 8.4375 -4.820312 8.53125 -5.34375 C 8.632812 -5.875 8.632812 -6.398438 8.53125 -6.921875 C 8.4375 -7.441406 8.242188 -7.921875 7.953125 -8.359375 C 7.660156 -8.804688 7.269531 -9.160156 6.78125 -9.421875 C 6.300781 -9.691406 5.71875 -9.828125 5.03125 -9.828125 Z M 5.03125 -9.828125 "/></g></g><g style="fill:#000000;fill-opacity:1;"><g transform="translate(99.541789, 14.251016)"><path style="stroke:none" d="M 10.1875 -4.28125 C 10.1875 -3.4375 10.023438 -2.71875 9.703125 -2.125 C 9.378906 -1.53125 8.953125 -1.054688 8.421875 -0.703125 C 7.898438 -0.347656 7.320312 -0.113281 6.6875 0 C 6.0625 0.125 5.429688 0.125 4.796875 0 C 4.160156 -0.113281 3.578125 -0.347656 3.046875 -0.703125 C 2.523438 -1.054688 2.101562 -1.53125 1.78125 -2.125 C 1.46875 -2.71875 1.3125 -3.4375 1.3125 -4.28125 L 1.3125 -12.28125 L 3.765625 -12.28125 L 3.765625 -4.296875 C 3.765625 -3.773438 3.894531 -3.359375 4.15625 -3.046875 C 4.425781 -2.742188 4.757812 -2.539062 5.15625 -2.4375 C 5.550781 -2.332031 5.945312 -2.332031 6.34375 -2.4375 C 6.738281 -2.539062 7.070312 -2.742188 7.34375 -3.046875 C 7.613281 -3.359375 7.75 -3.773438 7.75 -4.296875 L 7.75 -12.28125 L 10.1875 -12.28125 Z M 10.1875 -4.28125 "/></g></g><g style="fill:#000000;fill-opacity:1;"><g transform="translate(113.99076, 14.251016)"><path style="stroke:none" d="M 1.375 0 L 1.375 -12.296875 L 6.234375 -12.296875 C 6.960938 -12.296875 7.585938 -12.132812 8.109375 -11.8125 C 8.640625 -11.488281 9.046875 -11.046875 9.328125 -10.484375 C 9.609375 -9.929688 9.738281 -9.289062 9.71875 -8.5625 C 9.707031 -8.101562 9.613281 -7.648438 9.4375 -7.203125 C 9.257812 -6.765625 8.972656 -6.410156 8.578125 -6.140625 C 8.984375 -5.867188 9.296875 -5.507812 9.515625 -5.0625 C 9.742188 -4.625 9.859375 -4.164062 9.859375 -3.6875 C 9.859375 -3 9.691406 -2.378906 9.359375 -1.828125 C 9.035156 -1.273438 8.597656 -0.832031 8.046875 -0.5 C 7.503906 -0.164062 6.898438 0 6.234375 0 Z M 3.84375 -9.84375 L 3.84375 -7.359375 L 6.03125 -7.359375 C 6.382812 -7.359375 6.660156 -7.484375 6.859375 -7.734375 C 7.054688 -7.984375 7.15625 -8.273438 7.15625 -8.609375 C 7.15625 -8.953125 7.054688 -9.242188 6.859375 -9.484375 C 6.660156 -9.722656 6.382812 -9.84375 6.03125 -9.84375 Z M 3.84375 -4.90625 L 3.84375 -2.453125 L 6.03125 -2.453125 C 6.382812 -2.453125 6.675781 -2.570312 6.90625 -2.8125 C 7.144531 -3.050781 7.265625 -3.34375 7.265625 -3.6875 C 7.265625 -4.03125 7.144531 -4.316406 6.90625 -4.546875 C 6.675781 -4.785156 6.382812 -4.90625 6.03125 -4.90625 Z M 3.84375 -4.90625 "/></g></g><g style="fill:#000000;fill-opacity:1;"><g transform="translate(127.5818, 14.251016)"><path style="stroke:none" d="M 0.28125 0 L 5.4375 -12.71875 L 5.703125 -12.71875 L 10.875 0 L 8.109375 0 L 7.609375 -1.328125 L 3.53125 -1.328125 L 3.0625 0 Z M 4.4375 -3.625 L 6.703125 -3.625 L 5.578125 -6.8125 Z M 4.4375 -3.625 "/></g></g><g style="fill:#000000;fill-opacity:1;"><g transform="translate(141.721913, 14.251016)"><path style="stroke:none" d="M 3.828125 0 L 1.375 0 L 1.375 -12.28125 L 3.828125 -12.28125 Z M 3.828125 0 "/></g></g></g></svg>